# xmcd
#
# Track frame offsets:
#	150
#	12950
#	24692
#	33145
#	43625
#	52497
#	62011
#	76055
#	87200
#	99340
#
# Disc length: 1466 seconds
# Revision: 0
# Processed by: cddbd v1.5.2PL0 Copyright (c) Steve Scherf et al.
# Submitted via: dBpowerAMP V12.0
#
DISCID=7305b80a
DTITLE=Stanley Alpine and Tennessee Blu - Blue Grass With 5-string Banjo
DYEAR=1900
DGENRE=Bluegrass
TTITLE0=On My Way
TTITLE1=Mule Skinner Blues
TTITLE2=Blue Waves
TTITLE3=Swannee River
TTITLE4=Train 45
TTITLE5=White House Blues
TTITLE6=Letter From My Darling
TTITLE7=I'll Stay Around
TTITLE8=The Old Home Town
TTITLE9=Down The Road
EXTD=
EXTT0=
EXTT1=
EXTT2=
EXTT3=
EXTT4=
EXTT5=
EXTT6=
EXTT7=
EXTT8=
EXTT9=
PLAYORDER=
